<svg width="22" height="17" viewBox="0 0 22 17" fill="none" xmlns="http://www.w3.org/2000/svg">
<path d="M4.2625 1.2125C4.32654 1.14652 4.40958 1.09297 4.50504 1.05609C4.6005 1.0192 4.70577 1 4.8125 1H17.1875C17.2942 1 17.3995 1.0192 17.495 1.05609C17.5904 1.09297 17.6735 1.14652 17.7375 1.2125L21.8295 5.43487C22.0344 5.63144 22.044 5.913 21.8433 6.11912L11.55 16.725C11.486 16.791 11.4029 16.8445 11.3075 16.8814C11.212 16.9183 11.1067 16.9375 11 16.9375C10.8933 16.9375 10.788 16.9183 10.6925 16.8814C10.5971 16.8445 10.514 16.791 10.45 16.725L0.1375 6.1C0.0482473 6.00804 0 5.8962 0 5.78125C0 5.6663 0.0482473 5.55446 0.1375 5.4625L4.2625 1.2125ZM19.9183 5.23406L17.435 2.67344L16.368 5.23725L19.9183 5.23406ZM14.9229 5.23831L16.2442 2.0625H5.75575L7.07987 5.24469L14.9229 5.23831ZM7.52125 6.30719L11 14.6701L14.4815 6.30187L7.52125 6.30719ZM5.63613 5.24575L4.56362 2.67237L2.06387 5.24894L5.63613 5.24575ZM2.06113 6.3125L9.0915 13.5556L6.0775 6.30931L2.0625 6.3125H2.06113ZM12.9085 13.5556L19.9526 6.29869L15.9266 6.30081L12.9085 13.5556Z" fill="black"/>
</svg>
