<svg width="86" height="30" viewBox="0 0 86 30" fill="none" xmlns="http://www.w3.org/2000/svg">
<path d="M47.5314 29.64C46.5714 29.64 45.8647 29.4 45.4114 28.92C44.958 28.44 44.7314 27.6533 44.7314 26.56C44.7314 25.0933 44.9847 22.4933 45.4914 18.76C46.0247 15.0267 46.9047 9.49333 48.1314 2.16L52.9314 3.08L52.0114 8.8C51.238 13.7067 50.6514 17.4533 50.2514 20.04C49.878 22.6267 49.6914 24.36 49.6914 25.24C49.6914 26.7067 49.998 27.8267 50.6114 28.6C49.598 29.2933 48.5714 29.64 47.5314 29.64ZM57.1314 5.16C56.358 5.16 55.558 5.12 54.7314 5.04C53.9314 4.93333 53.038 4.8 52.0514 4.64C51.1714 4.50667 50.2514 4.38667 49.2914 4.28C48.358 4.17333 47.478 4.12 46.6514 4.12L40.2114 5.08C39.9447 4.57333 39.8114 3.92 39.8114 3.12C39.8114 1.94667 40.1447 1.13333 40.8114 0.680001C41.478 0.226667 42.478 0 43.8114 0C44.558 0 45.3847 0.0533334 46.2914 0.16C47.2247 0.266667 48.118 0.386667 48.9714 0.52C50.0914 0.706666 51.0514 0.853333 51.8514 0.96C52.6514 1.04 53.4647 1.08 54.2914 1.08L60.7314 0.079999C60.9714 0.559999 61.0914 1.21333 61.0914 2.04C61.0914 3.02667 60.7447 3.8 60.0514 4.36C59.358 4.89333 58.3847 5.16 57.1314 5.16Z" fill="#CDCACA"/>
<path d="M7.80682 11.1455H9.92045V23.6227C9.92045 24.7364 9.71591 25.6824 9.30682 26.4608C8.89773 27.2392 8.32102 27.8301 7.5767 28.2335C6.83239 28.6369 5.95455 28.8386 4.94318 28.8386C3.98864 28.8386 3.1392 28.6653 2.39489 28.3188C1.65057 27.9665 1.06534 27.4665 0.639205 26.8188C0.213068 26.171 0 25.4011 0 24.5091H2.07955C2.07955 25.0034 2.2017 25.4352 2.44602 25.8045C2.69602 26.1682 3.03693 26.4523 3.46875 26.6568C3.90057 26.8614 4.39205 26.9636 4.94318 26.9636C5.55114 26.9636 6.06818 26.8358 6.49432 26.5801C6.92045 26.3244 7.24432 25.9494 7.46591 25.4551C7.69318 24.9551 7.80682 24.3443 7.80682 23.6227V11.1455Z" fill="#CDCACA"/>
<path d="M15.8949 20.725V28.6H13.8835V11.1455H15.8949V17.5545H16.0653C16.3722 16.8784 16.8324 16.3415 17.446 15.9438C18.0653 15.5403 18.8892 15.3386 19.9176 15.3386C20.8097 15.3386 21.5909 15.5176 22.2614 15.8756C22.9318 16.2278 23.4517 16.7705 23.821 17.5034C24.196 18.2307 24.3835 19.1568 24.3835 20.2818V28.6H22.3722V20.4182C22.3722 19.3784 22.1023 18.5744 21.5625 18.0063C21.0284 17.4324 20.2869 17.1455 19.3381 17.1455C18.679 17.1455 18.0881 17.2847 17.5653 17.5631C17.0483 17.8415 16.6392 18.2477 16.3381 18.7818C16.0426 19.3159 15.8949 19.9636 15.8949 20.725Z" fill="#CDCACA"/>
<path d="M33.3814 28.8727C32.1996 28.8727 31.1626 28.5915 30.2706 28.029C29.3842 27.4665 28.6911 26.6795 28.1911 25.6682C27.6967 24.6568 27.4496 23.475 27.4496 22.1227C27.4496 20.7591 27.6967 19.5688 28.1911 18.5517C28.6911 17.5347 29.3842 16.7449 30.2706 16.1824C31.1626 15.6199 32.1996 15.3386 33.3814 15.3386C34.5632 15.3386 35.5973 15.6199 36.4837 16.1824C37.3757 16.7449 38.0689 17.5347 38.5632 18.5517C39.0632 19.5688 39.3132 20.7591 39.3132 22.1227C39.3132 23.475 39.0632 24.6568 38.5632 25.6682C38.0689 26.6795 37.3757 27.4665 36.4837 28.029C35.5973 28.5915 34.5632 28.8727 33.3814 28.8727ZM33.3814 27.0659C34.2791 27.0659 35.0178 26.8358 35.5973 26.3756C36.1768 25.9153 36.6058 25.3102 36.8842 24.5602C37.1626 23.8102 37.3018 22.9977 37.3018 22.1227C37.3018 21.2477 37.1626 20.4324 36.8842 19.6767C36.6058 18.921 36.1768 18.3102 35.5973 17.8443C35.0178 17.3784 34.2791 17.1455 33.3814 17.1455C32.4837 17.1455 31.745 17.3784 31.1655 17.8443C30.5859 18.3102 30.157 18.921 29.8786 19.6767C29.6001 20.4324 29.4609 21.2477 29.4609 22.1227C29.4609 22.9977 29.6001 23.8102 29.8786 24.5602C30.157 25.3102 30.5859 25.9153 31.1655 26.3756C31.745 26.8358 32.4837 27.0659 33.3814 27.0659Z" fill="#CDCACA"/>
<path d="M58.3409 28.8727C57.0795 28.8727 55.9915 28.5943 55.0767 28.0375C54.1676 27.475 53.4659 26.6909 52.9716 25.6852C52.483 24.6739 52.2386 23.4977 52.2386 22.1568C52.2386 20.8159 52.483 19.6341 52.9716 18.6114C53.4659 17.583 54.1534 16.7818 55.0341 16.208C55.9205 15.6284 56.9545 15.3386 58.1364 15.3386C58.8182 15.3386 59.4915 15.4523 60.1562 15.6795C60.821 15.9068 61.4261 16.2761 61.9716 16.7875C62.517 17.2932 62.9517 17.9636 63.2756 18.7989C63.5994 19.6341 63.7614 20.6625 63.7614 21.8841V22.7364H53.6705V20.9977H61.7159C61.7159 20.2591 61.5682 19.6 61.2727 19.0205C60.983 18.4409 60.5682 17.9835 60.0284 17.6483C59.4943 17.3131 58.8636 17.1455 58.1364 17.1455C57.3352 17.1455 56.642 17.3443 56.0568 17.742C55.4773 18.1341 55.0312 18.6455 54.7188 19.2761C54.4062 19.9068 54.25 20.583 54.25 21.3045V22.4636C54.25 23.4523 54.4205 24.2903 54.7614 24.9778C55.108 25.6597 55.5881 26.1795 56.2017 26.5375C56.8153 26.8898 57.5284 27.0659 58.3409 27.0659C58.8693 27.0659 59.3466 26.992 59.7727 26.8443C60.2045 26.6909 60.5767 26.4636 60.8892 26.1625C61.2017 25.8557 61.4432 25.475 61.6136 25.0205L63.5568 25.5659C63.3523 26.225 63.0085 26.8045 62.5256 27.3045C62.0426 27.7989 61.446 28.1852 60.7358 28.4636C60.0256 28.7364 59.2273 28.8727 58.3409 28.8727Z" fill="#CDCACA"/>
<path d="M76.0938 18.4409L74.2869 18.9523C74.1733 18.6511 74.0057 18.3585 73.7841 18.0744C73.5682 17.7847 73.2727 17.546 72.8977 17.3585C72.5227 17.171 72.0426 17.0773 71.4574 17.0773C70.6562 17.0773 69.9886 17.2619 69.4545 17.6313C68.9261 17.9949 68.6619 18.458 68.6619 19.0205C68.6619 19.5205 68.8438 19.9153 69.2074 20.2051C69.571 20.4949 70.1392 20.7364 70.9119 20.9295L72.8551 21.4068C74.0256 21.6909 74.8977 22.1256 75.4716 22.7108C76.0454 23.2903 76.3324 24.0375 76.3324 24.9523C76.3324 25.7023 76.1165 26.3727 75.6847 26.9636C75.2585 27.5545 74.6619 28.0205 73.8949 28.3614C73.1278 28.7023 72.2358 28.8727 71.2188 28.8727C69.8835 28.8727 68.7784 28.583 67.9034 28.0034C67.0284 27.4239 66.4744 26.5773 66.2415 25.4636L68.1506 24.9864C68.3324 25.6909 68.6761 26.2193 69.1818 26.5716C69.6932 26.9239 70.3608 27.1 71.1847 27.1C72.1222 27.1 72.8665 26.9011 73.4176 26.5034C73.9744 26.1 74.2528 25.617 74.2528 25.0545C74.2528 24.6 74.0938 24.2193 73.7756 23.9125C73.4574 23.6 72.9688 23.367 72.3097 23.2136L70.1278 22.7023C68.929 22.4182 68.0483 21.9778 67.4858 21.3813C66.929 20.779 66.6506 20.0261 66.6506 19.1227C66.6506 18.3841 66.858 17.7307 67.2727 17.1625C67.6932 16.5943 68.2642 16.1483 68.9858 15.8244C69.7131 15.5006 70.5369 15.3386 71.4574 15.3386C72.7528 15.3386 73.7699 15.6227 74.5085 16.1909C75.2528 16.7591 75.7812 17.5091 76.0938 18.4409Z" fill="#CDCACA"/>
<path d="M85.0533 15.5091V17.2136H78.2692V15.5091H85.0533ZM80.2465 12.3727H82.2578V24.85C82.2578 25.4182 82.3402 25.8443 82.505 26.1284C82.6754 26.4068 82.8913 26.5943 83.1527 26.6909C83.4197 26.7818 83.701 26.8273 83.9965 26.8273C84.218 26.8273 84.3999 26.8159 84.5419 26.7932C84.6839 26.7648 84.7976 26.742 84.8828 26.725L85.2919 28.5318C85.1555 28.583 84.9652 28.6341 84.7209 28.6852C84.4766 28.742 84.1669 28.7705 83.7919 28.7705C83.2237 28.7705 82.6669 28.6483 82.1215 28.404C81.5817 28.1597 81.1328 27.7875 80.7749 27.2875C80.4226 26.7875 80.2465 26.1568 80.2465 25.3955V12.3727Z" fill="#CDCACA"/>
</svg>
